<svg width="434" height="176" viewBox="0 0 434 176" fill="none" xmlns="http://www.w3.org/2000/svg">
<path d="M1 101.978C1 101.978 84.7811 125.339 139.607 124.412C192.384 123.519 219.828 52.88 304.724 72.9383C389.62 92.9966 420.991 1.00014 420.991 1.00014" stroke="black" stroke-width="1.5"/>
<path d="M80.5335 68.399L77.2712 82.843L66.7377 65.8485L83.731 55.3157L80.5355 68.3904L80.5354 68.3904L80.5335 68.399Z" fill="#279574" stroke="black"/>
<path d="M164.31 160.567L179.053 161.952L163.548 174.576L150.925 159.073L164.301 160.566L164.301 160.567L164.31 160.567Z" fill="#279574" stroke="black"/>
<rect x="316.899" y="6.97736" width="17.8203" height="17.8203" transform="rotate(24.4646 316.899 6.97736)" fill="#DF5B5B" stroke="black"/>
<rect x="344.259" y="102.521" width="17.8203" height="17.8203" rx="8.91015" fill="#DF5B5B" stroke="black"/>
</svg>
