<svg width="40" height="33" viewBox="0 0 40 33" fill="none" xmlns="http://www.w3.org/2000/svg">
<path d="M39.5444 24.8272L34.9286 20.2115C34.3216 19.6045 33.3337 19.6045 32.7265 20.2115L32.3668 20.5714L31.5765 19.7811C34.6542 16.2897 34.5252 10.943 31.1893 7.60725C29.5084 5.926 27.2734 5 24.896 5C22.5185 5 20.2833 5.926 18.6026 7.60707C15.1325 11.0771 15.1325 16.7236 18.6026 20.1933C20.3376 21.9284 22.6167 22.7958 24.896 22.7958C26.9986 22.7958 29.1013 22.0575 30.7769 20.5805L31.5672 21.3708L31.2077 21.7305C30.9135 22.0247 30.7515 22.4156 30.7515 22.8316C30.7515 23.2475 30.9137 23.6384 31.2077 23.9326L35.8234 28.5483C36.1273 28.8518 36.5258 29.0034 36.9246 29.0034C37.3233 29.0034 37.7222 28.8518 38.0256 28.5482L39.5449 27.0289C40.1517 26.4219 40.1517 25.4342 39.5447 24.827L39.5444 24.8272ZM30.3891 19.3934C27.3599 22.4225 22.4313 22.4225 19.402 19.3934C16.3729 16.3642 16.3729 11.4357 19.402 8.4063C20.8694 6.93869 22.8203 6.13054 24.8953 6.13054C26.9703 6.13054 28.9214 6.93864 30.3887 8.4063C33.4179 11.4355 33.4179 16.3641 30.3887 19.3934H30.3891ZM38.7444 26.2296L37.2251 27.7488C37.0591 27.9152 36.7887 27.9152 36.6226 27.7488L32.0068 23.1331C31.9262 23.0527 31.882 22.9457 31.882 22.8317C31.882 22.7178 31.9262 22.6108 32.0068 22.5305L33.5259 21.0112C33.6089 20.9284 33.7182 20.8866 33.8273 20.8866C33.9364 20.8866 34.0455 20.9284 34.1285 21.0112L38.7443 25.627C38.9103 25.793 38.9103 26.0635 38.7443 26.2295L38.7444 26.2296Z" fill="#ECECEC"/>
<line x1="0.5" y1="-2.18557e-08" x2="0.500001" y2="33" stroke="#ECECEC"/>
</svg>
