<svg width="35" height="30" viewBox="0 0 35 30" fill="none" xmlns="http://www.w3.org/2000/svg">
<path d="M19.2349 6.99008C19.2349 10.8506 16.1055 13.9805 12.2449 13.9805C8.3843 13.9805 5.25446 10.8507 5.25446 6.99008C5.25446 3.12946 8.38423 0 12.2449 0C16.1054 0 19.2349 3.12946 19.2349 6.99008Z" fill="#ECECEC"/>
<path d="M14.3504 15.1459H10.1387C7.45054 15.148 4.87296 16.217 2.97194 18.1181C1.07124 20.0188 0.00218445 22.5964 0 25.2846V28.835C0 29.144 0.122812 29.4405 0.341016 29.659C0.559523 29.8772 0.856047 30 1.16502 30H23.3239C23.6329 30 23.9292 29.8772 24.1477 29.659C24.3662 29.4405 24.489 29.1439 24.489 28.835V25.2846C24.486 22.5967 23.4166 20.0195 21.5159 18.1187C19.6152 16.218 17.0382 15.1489 14.3503 15.1459H14.3504Z" fill="#ECECEC"/>
<path d="M33.5064 11.9418H30.5939V9.02896C30.5939 8.61298 30.3717 8.22836 30.0115 8.02022C29.651 7.81207 29.2067 7.81207 28.8464 8.02022C28.4859 8.22836 28.2638 8.61296 28.2638 9.02896V11.9415H25.3513V11.9418C24.935 11.9418 24.5504 12.1636 24.3422 12.5241C24.1341 12.8847 24.1341 13.3286 24.3422 13.6892C24.5504 14.0498 24.9349 14.2719 25.3513 14.2719H28.2638V17.1844C28.2638 17.6007 28.4859 17.9853 28.8464 18.1935C29.2067 18.4016 29.6509 18.4016 30.0115 18.1935C30.3718 17.9853 30.5939 17.6007 30.5939 17.1844V14.2719H33.5064C33.9227 14.2719 34.3073 14.0498 34.5155 13.6892C34.7236 13.3287 34.7236 12.8847 34.5155 12.5241C34.3073 12.1635 33.9227 11.9418 33.5064 11.9418V11.9418Z" fill="#ECECEC"/>
</svg>
