<svg width="314" height="20" viewBox="0 0 314 20" fill="none" xmlns="http://www.w3.org/2000/svg">
<path d="M0.88 16V2H3.02L11.8 12.78H10.74V2H13.32V16H11.18L2.4 5.22H3.46V16H0.88ZM15.0914 16L21.3914 2H23.9514L30.2714 16H27.5514L22.1314 3.38H23.1714L17.7714 16H15.0914ZM17.9914 12.76L18.6914 10.72H26.2514L26.9514 12.76H17.9914ZM36.3919 16.2C35.2985 16.2 34.2519 16.0467 33.2519 15.74C32.2519 15.42 31.4585 15.0133 30.8719 14.52L31.7719 12.5C32.3319 12.94 33.0252 13.3067 33.8519 13.6C34.6785 13.8933 35.5252 14.04 36.3919 14.04C37.1252 14.04 37.7185 13.96 38.1719 13.8C38.6252 13.64 38.9585 13.4267 39.1719 13.16C39.3852 12.88 39.4919 12.5667 39.4919 12.22C39.4919 11.7933 39.3385 11.4533 39.0319 11.2C38.7252 10.9333 38.3252 10.7267 37.8319 10.58C37.3519 10.42 36.8119 10.2733 36.2119 10.14C35.6252 10.0067 35.0319 9.85333 34.4319 9.68C33.8452 9.49333 33.3052 9.26 32.8119 8.98C32.3319 8.68667 31.9385 8.3 31.6319 7.82C31.3252 7.34 31.1719 6.72667 31.1719 5.98C31.1719 5.22 31.3719 4.52667 31.7719 3.9C32.1852 3.26 32.8052 2.75333 33.6319 2.38C34.4719 1.99333 35.5319 1.8 36.8119 1.8C37.6519 1.8 38.4852 1.90667 39.3119 2.12C40.1385 2.33333 40.8585 2.64 41.4719 3.04L40.6519 5.06C40.0252 4.68667 39.3785 4.41333 38.7119 4.24C38.0452 4.05333 37.4052 3.96 36.7919 3.96C36.0719 3.96 35.4852 4.04667 35.0319 4.22C34.5919 4.39333 34.2652 4.62 34.0519 4.9C33.8519 5.18 33.7519 5.5 33.7519 5.86C33.7519 6.28667 33.8985 6.63333 34.1919 6.9C34.4985 7.15333 34.8919 7.35333 35.3719 7.5C35.8652 7.64667 36.4119 7.79333 37.0119 7.94C37.6119 8.07333 38.2052 8.22667 38.7919 8.4C39.3919 8.57333 39.9319 8.8 40.4119 9.08C40.9052 9.36 41.2985 9.74 41.5919 10.22C41.8985 10.7 42.0519 11.3067 42.0519 12.04C42.0519 12.7867 41.8452 13.48 41.4319 14.12C41.0319 14.7467 40.4119 15.2533 39.5719 15.64C38.7319 16.0133 37.6719 16.2 36.3919 16.2ZM42.65 16L48.95 2H51.51L57.83 16H55.11L49.69 3.38H50.73L45.33 16H42.65ZM45.55 12.76L46.25 10.72H53.81L54.51 12.76H45.55ZM67.9816 16V3.74H63.1816V2H74.7616V3.74H69.9616V16H67.9816ZM80.2861 16.12C79.1528 16.12 78.1528 15.8867 77.2861 15.42C76.4328 14.9533 75.7661 14.3133 75.2861 13.5C74.8194 12.6867 74.5861 11.7533 74.5861 10.7C74.5861 9.64667 74.8128 8.71333 75.2661 7.9C75.7328 7.08667 76.3661 6.45333 77.1661 6C77.9794 5.53333 78.8928 5.3 79.9061 5.3C80.9328 5.3 81.8394 5.52667 82.6261 5.98C83.4128 6.43333 84.0261 7.07333 84.4661 7.9C84.9194 8.71333 85.1461 9.66667 85.1461 10.76C85.1461 10.84 85.1394 10.9333 85.1261 11.04C85.1261 11.1467 85.1194 11.2467 85.1061 11.34H76.0861V9.96H84.1061L83.3261 10.44C83.3394 9.76 83.1994 9.15333 82.9061 8.62C82.6128 8.08667 82.2061 7.67333 81.6861 7.38C81.1794 7.07333 80.5861 6.92 79.9061 6.92C79.2394 6.92 78.6461 7.07333 78.1261 7.38C77.6061 7.67333 77.1994 8.09333 76.9061 8.64C76.6128 9.17333 76.4661 9.78667 76.4661 10.48V10.8C76.4661 11.5067 76.6261 12.14 76.9461 12.7C77.2794 13.2467 77.7394 13.6733 78.3261 13.98C78.9128 14.2867 79.5861 14.44 80.3461 14.44C80.9728 14.44 81.5394 14.3333 82.0461 14.12C82.5661 13.9067 83.0194 13.5867 83.4061 13.16L84.4661 14.4C83.9861 14.96 83.3861 15.3867 82.6661 15.68C81.9594 15.9733 81.1661 16.12 80.2861 16.12ZM92.4322 16.12C91.3522 16.12 90.3855 15.8867 89.5322 15.42C88.6922 14.9533 88.0322 14.3133 87.5522 13.5C87.0722 12.6867 86.8322 11.7533 86.8322 10.7C86.8322 9.64667 87.0722 8.71333 87.5522 7.9C88.0322 7.08667 88.6922 6.45333 89.5322 6C90.3855 5.53333 91.3522 5.3 92.4322 5.3C93.3922 5.3 94.2455 5.49333 94.9922 5.88C95.7522 6.25333 96.3389 6.81333 96.7522 7.56L95.2922 8.5C94.9455 7.98 94.5189 7.6 94.0122 7.36C93.5189 7.10667 92.9855 6.98 92.4122 6.98C91.7189 6.98 91.0989 7.13333 90.5522 7.44C90.0055 7.74667 89.5722 8.18 89.2522 8.74C88.9322 9.28667 88.7722 9.94 88.7722 10.7C88.7722 11.46 88.9322 12.12 89.2522 12.68C89.5722 13.24 90.0055 13.6733 90.5522 13.98C91.0989 14.2867 91.7189 14.44 92.4122 14.44C92.9855 14.44 93.5189 14.32 94.0122 14.08C94.5189 13.8267 94.9455 13.44 95.2922 12.92L96.7522 13.84C96.3389 14.5733 95.7522 15.14 94.9922 15.54C94.2455 15.9267 93.3922 16.12 92.4322 16.12ZM104.761 5.3C105.628 5.3 106.388 5.46667 107.041 5.8C107.708 6.13333 108.228 6.64 108.601 7.32C108.975 8 109.161 8.86 109.161 9.9V16H107.241V10.12C107.241 9.09333 106.988 8.32 106.481 7.8C105.988 7.28 105.288 7.02 104.381 7.02C103.701 7.02 103.108 7.15333 102.601 7.42C102.095 7.68667 101.701 8.08 101.421 8.6C101.155 9.12 101.021 9.76667 101.021 10.54V16H99.1013V1.16H101.021V8.26L100.641 7.5C100.988 6.80667 101.521 6.26667 102.241 5.88C102.961 5.49333 103.801 5.3 104.761 5.3ZM118.375 5.3C119.241 5.3 120.001 5.46667 120.655 5.8C121.321 6.13333 121.841 6.64 122.215 7.32C122.588 8 122.775 8.86 122.775 9.9V16H120.855V10.12C120.855 9.09333 120.601 8.32 120.095 7.8C119.601 7.28 118.901 7.02 117.995 7.02C117.315 7.02 116.721 7.15333 116.215 7.42C115.708 7.68667 115.315 8.08 115.035 8.6C114.768 9.12 114.635 9.76667 114.635 10.54V16H112.715V5.4H114.555V8.26L114.255 7.5C114.601 6.80667 115.135 6.26667 115.855 5.88C116.575 5.49333 117.415 5.3 118.375 5.3ZM126.328 16V5.4H128.248V16H126.328ZM127.288 3.36C126.914 3.36 126.601 3.24 126.348 3C126.108 2.76 125.988 2.46667 125.988 2.12C125.988 1.76 126.108 1.46 126.348 1.22C126.601 0.979999 126.914 0.859999 127.288 0.859999C127.661 0.859999 127.968 0.979999 128.208 1.22C128.461 1.44667 128.588 1.73333 128.588 2.08C128.588 2.44 128.468 2.74667 128.228 3C127.988 3.24 127.674 3.36 127.288 3.36ZM136.534 16.12C135.454 16.12 134.487 15.8867 133.634 15.42C132.794 14.9533 132.134 14.3133 131.654 13.5C131.174 12.6867 130.934 11.7533 130.934 10.7C130.934 9.64667 131.174 8.71333 131.654 7.9C132.134 7.08667 132.794 6.45333 133.634 6C134.487 5.53333 135.454 5.3 136.534 5.3C137.494 5.3 138.347 5.49333 139.094 5.88C139.854 6.25333 140.44 6.81333 140.854 7.56L139.394 8.5C139.047 7.98 138.62 7.6 138.114 7.36C137.62 7.10667 137.087 6.98 136.514 6.98C135.82 6.98 135.2 7.13333 134.654 7.44C134.107 7.74667 133.674 8.18 133.354 8.74C133.034 9.28667 132.874 9.94 132.874 10.7C132.874 11.46 133.034 12.12 133.354 12.68C133.674 13.24 134.107 13.6733 134.654 13.98C135.2 14.2867 135.82 14.44 136.514 14.44C137.087 14.44 137.62 14.32 138.114 14.08C138.62 13.8267 139.047 13.44 139.394 12.92L140.854 13.84C140.44 14.5733 139.854 15.14 139.094 15.54C138.347 15.9267 137.494 16.12 136.534 16.12ZM149.92 16V13.76L149.82 13.34V9.52C149.82 8.70667 149.58 8.08 149.1 7.64C148.633 7.18667 147.926 6.96 146.98 6.96C146.353 6.96 145.74 7.06667 145.14 7.28C144.54 7.48 144.033 7.75333 143.62 8.1L142.82 6.66C143.366 6.22 144.02 5.88667 144.78 5.66C145.553 5.42 146.36 5.3 147.2 5.3C148.653 5.3 149.773 5.65333 150.56 6.36C151.346 7.06667 151.74 8.14667 151.74 9.6V16H149.92ZM146.44 16.12C145.653 16.12 144.96 15.9867 144.36 15.72C143.773 15.4533 143.32 15.0867 143 14.62C142.68 14.14 142.52 13.6 142.52 13C142.52 12.4267 142.653 11.9067 142.92 11.44C143.2 10.9733 143.646 10.6 144.26 10.32C144.886 10.04 145.726 9.9 146.78 9.9H150.14V11.28H146.86C145.9 11.28 145.253 11.44 144.92 11.76C144.586 12.08 144.42 12.4667 144.42 12.92C144.42 13.44 144.626 13.86 145.04 14.18C145.453 14.4867 146.026 14.64 146.76 14.64C147.48 14.64 148.106 14.48 148.64 14.16C149.186 13.84 149.58 13.3733 149.82 12.76L150.2 14.08C149.946 14.7067 149.5 15.2067 148.86 15.58C148.22 15.94 147.413 16.12 146.44 16.12ZM155.293 16V1.16H157.213V16H155.293ZM166.53 16V2H171.99C173.216 2 174.263 2.19333 175.13 2.58C175.996 2.96667 176.663 3.52667 177.13 4.26C177.596 4.99333 177.83 5.86667 177.83 6.88C177.83 7.89333 177.596 8.76667 177.13 9.5C176.663 10.22 175.996 10.7733 175.13 11.16C174.263 11.5467 173.216 11.74 171.99 11.74H167.63L168.53 10.82V16H166.53ZM175.89 16L172.33 10.92H174.47L178.07 16H175.89ZM168.53 11.02L167.63 10.04H171.93C173.21 10.04 174.176 9.76667 174.83 9.22C175.496 8.66 175.83 7.88 175.83 6.88C175.83 5.88 175.496 5.10667 174.83 4.56C174.176 4.01333 173.21 3.74 171.93 3.74H167.63L168.53 2.74V11.02ZM185.501 16.12C184.368 16.12 183.368 15.8867 182.501 15.42C181.648 14.9533 180.981 14.3133 180.501 13.5C180.034 12.6867 179.801 11.7533 179.801 10.7C179.801 9.64667 180.028 8.71333 180.481 7.9C180.948 7.08667 181.581 6.45333 182.381 6C183.194 5.53333 184.108 5.3 185.121 5.3C186.148 5.3 187.054 5.52667 187.841 5.98C188.628 6.43333 189.241 7.07333 189.681 7.9C190.134 8.71333 190.361 9.66667 190.361 10.76C190.361 10.84 190.354 10.9333 190.341 11.04C190.341 11.1467 190.334 11.2467 190.321 11.34H181.301V9.96H189.321L188.541 10.44C188.554 9.76 188.414 9.15333 188.121 8.62C187.828 8.08667 187.421 7.67333 186.901 7.38C186.394 7.07333 185.801 6.92 185.121 6.92C184.454 6.92 183.861 7.07333 183.341 7.38C182.821 7.67333 182.414 8.09333 182.121 8.64C181.828 9.17333 181.681 9.78667 181.681 10.48V10.8C181.681 11.5067 181.841 12.14 182.161 12.7C182.494 13.2467 182.954 13.6733 183.541 13.98C184.128 14.2867 184.801 14.44 185.561 14.44C186.188 14.44 186.754 14.3333 187.261 14.12C187.781 13.9067 188.234 13.5867 188.621 13.16L189.681 14.4C189.201 14.96 188.601 15.3867 187.881 15.68C187.174 15.9733 186.381 16.12 185.501 16.12ZM198.647 16.12C197.767 16.12 196.96 15.92 196.227 15.52C195.507 15.1067 194.927 14.5 194.487 13.7C194.06 12.9 193.847 11.9 193.847 10.7C193.847 9.5 194.054 8.5 194.467 7.7C194.894 6.9 195.467 6.3 196.187 5.9C196.92 5.5 197.74 5.3 198.647 5.3C199.687 5.3 200.607 5.52667 201.407 5.98C202.207 6.43333 202.84 7.06667 203.307 7.88C203.774 8.68 204.007 9.62 204.007 10.7C204.007 11.78 203.774 12.7267 203.307 13.54C202.84 14.3533 202.207 14.9867 201.407 15.44C200.607 15.8933 199.687 16.12 198.647 16.12ZM193.027 19.88V5.4H194.867V8.26L194.747 10.72L194.947 13.18V19.88H193.027ZM198.487 14.44C199.167 14.44 199.774 14.2867 200.307 13.98C200.854 13.6733 201.28 13.24 201.587 12.68C201.907 12.1067 202.067 11.4467 202.067 10.7C202.067 9.94 201.907 9.28667 201.587 8.74C201.28 8.18 200.854 7.74667 200.307 7.44C199.774 7.13333 199.167 6.98 198.487 6.98C197.82 6.98 197.214 7.13333 196.667 7.44C196.134 7.74667 195.707 8.18 195.387 8.74C195.08 9.28667 194.927 9.94 194.927 10.7C194.927 11.4467 195.08 12.1067 195.387 12.68C195.707 13.24 196.134 13.6733 196.667 13.98C197.214 14.2867 197.82 14.44 198.487 14.44ZM211.2 16.12C210.133 16.12 209.187 15.8867 208.36 15.42C207.533 14.9533 206.88 14.3133 206.4 13.5C205.92 12.6733 205.68 11.74 205.68 10.7C205.68 9.64667 205.92 8.71333 206.4 7.9C206.88 7.08667 207.533 6.45333 208.36 6C209.187 5.53333 210.133 5.3 211.2 5.3C212.253 5.3 213.193 5.53333 214.02 6C214.86 6.45333 215.513 7.08667 215.98 7.9C216.46 8.7 216.7 9.63333 216.7 10.7C216.7 11.7533 216.46 12.6867 215.98 13.5C215.513 14.3133 214.86 14.9533 214.02 15.42C213.193 15.8867 212.253 16.12 211.2 16.12ZM211.2 14.44C211.88 14.44 212.487 14.2867 213.02 13.98C213.567 13.6733 213.993 13.24 214.3 12.68C214.607 12.1067 214.76 11.4467 214.76 10.7C214.76 9.94 214.607 9.28667 214.3 8.74C213.993 8.18 213.567 7.74667 213.02 7.44C212.487 7.13333 211.88 6.98 211.2 6.98C210.52 6.98 209.913 7.13333 209.38 7.44C208.847 7.74667 208.42 8.18 208.1 8.74C207.78 9.28667 207.62 9.94 207.62 10.7C207.62 11.4467 207.78 12.1067 208.1 12.68C208.42 13.24 208.847 13.6733 209.38 13.98C209.913 14.2867 210.52 14.44 211.2 14.44ZM219.355 16V5.4H221.195V8.28L221.015 7.56C221.308 6.82667 221.802 6.26667 222.495 5.88C223.188 5.49333 224.042 5.3 225.055 5.3V7.16C224.975 7.14667 224.895 7.14 224.815 7.14C224.748 7.14 224.682 7.14 224.615 7.14C223.588 7.14 222.775 7.44667 222.175 8.06C221.575 8.67333 221.275 9.56 221.275 10.72V16H219.355ZM231.491 16.12C230.425 16.12 229.598 15.8333 229.011 15.26C228.425 14.6867 228.131 13.8667 228.131 12.8V3.08H230.051V12.72C230.051 13.2933 230.191 13.7333 230.471 14.04C230.765 14.3467 231.178 14.5 231.711 14.5C232.311 14.5 232.811 14.3333 233.211 14L233.811 15.38C233.518 15.6333 233.165 15.82 232.751 15.94C232.351 16.06 231.931 16.12 231.491 16.12ZM226.331 6.98V5.4H233.091V6.98H226.331ZM239.173 16.12C238.293 16.12 237.453 16 236.653 15.76C235.866 15.52 235.246 15.2267 234.793 14.88L235.593 13.36C236.046 13.6667 236.606 13.9267 237.273 14.14C237.939 14.3533 238.619 14.46 239.312 14.46C240.206 14.46 240.846 14.3333 241.233 14.08C241.633 13.8267 241.833 13.4733 241.833 13.02C241.833 12.6867 241.713 12.4267 241.473 12.24C241.233 12.0533 240.913 11.9133 240.513 11.82C240.126 11.7267 239.693 11.6467 239.213 11.58C238.733 11.5 238.253 11.4067 237.773 11.3C237.293 11.18 236.853 11.02 236.453 10.82C236.053 10.6067 235.733 10.32 235.493 9.96C235.253 9.58667 235.133 9.09333 235.133 8.48C235.133 7.84 235.313 7.28 235.673 6.8C236.033 6.32 236.539 5.95333 237.193 5.7C237.859 5.43333 238.646 5.3 239.553 5.3C240.246 5.3 240.946 5.38667 241.653 5.56C242.373 5.72 242.959 5.95333 243.413 6.26L242.593 7.78C242.113 7.46 241.613 7.24 241.093 7.12C240.573 7 240.053 6.94 239.533 6.94C238.693 6.94 238.066 7.08 237.653 7.36C237.239 7.62667 237.033 7.97333 237.033 8.4C237.033 8.76 237.153 9.04 237.393 9.24C237.646 9.42667 237.966 9.57333 238.353 9.68C238.753 9.78667 239.193 9.88 239.673 9.96C240.153 10.0267 240.633 10.12 241.113 10.24C241.593 10.3467 242.026 10.5 242.413 10.7C242.813 10.9 243.133 11.18 243.373 11.54C243.626 11.9 243.753 12.38 243.753 12.98C243.753 13.62 243.566 14.1733 243.193 14.64C242.819 15.1067 242.293 15.4733 241.613 15.74C240.933 15.9933 240.119 16.12 239.173 16.12ZM255.883 16.16C254.816 16.16 253.796 16 252.823 15.68C251.85 15.3467 251.083 14.92 250.523 14.4L251.263 12.84C251.796 13.3067 252.476 13.6933 253.303 14C254.13 14.3067 254.99 14.46 255.883 14.46C256.696 14.46 257.356 14.3667 257.863 14.18C258.37 13.9933 258.743 13.74 258.983 13.42C259.223 13.0867 259.343 12.7133 259.343 12.3C259.343 11.82 259.183 11.4333 258.863 11.14C258.556 10.8467 258.15 10.6133 257.643 10.44C257.15 10.2533 256.603 10.0933 256.003 9.96C255.403 9.82667 254.796 9.67333 254.183 9.5C253.583 9.31333 253.03 9.08 252.523 8.8C252.03 8.52 251.63 8.14667 251.323 7.68C251.016 7.2 250.863 6.58667 250.863 5.84C250.863 5.12 251.05 4.46 251.423 3.86C251.81 3.24667 252.396 2.76 253.183 2.4C253.983 2.02667 254.996 1.84 256.223 1.84C257.036 1.84 257.843 1.94667 258.643 2.16C259.443 2.37333 260.136 2.68 260.723 3.08L260.063 4.68C259.463 4.28 258.83 3.99333 258.163 3.82C257.496 3.63333 256.85 3.54 256.223 3.54C255.436 3.54 254.79 3.64 254.283 3.84C253.776 4.04 253.403 4.30667 253.163 4.64C252.936 4.97333 252.823 5.34667 252.823 5.76C252.823 6.25333 252.976 6.64667 253.283 6.94C253.603 7.23333 254.01 7.46667 254.503 7.64C255.01 7.81333 255.563 7.97333 256.163 8.12C256.763 8.25333 257.363 8.40667 257.963 8.58C258.576 8.75333 259.13 8.98 259.623 9.26C260.13 9.54 260.536 9.91333 260.843 10.38C261.15 10.8467 261.303 11.4467 261.303 12.18C261.303 12.8867 261.11 13.5467 260.723 14.16C260.336 14.76 259.736 15.2467 258.923 15.62C258.123 15.98 257.11 16.16 255.883 16.16ZM268.665 16.12C267.532 16.12 266.532 15.8867 265.665 15.42C264.812 14.9533 264.145 14.3133 263.665 13.5C263.198 12.6867 262.965 11.7533 262.965 10.7C262.965 9.64667 263.192 8.71333 263.645 7.9C264.112 7.08667 264.745 6.45333 265.545 6C266.358 5.53333 267.272 5.3 268.285 5.3C269.312 5.3 270.218 5.52667 271.005 5.98C271.792 6.43333 272.405 7.07333 272.845 7.9C273.298 8.71333 273.525 9.66667 273.525 10.76C273.525 10.84 273.518 10.9333 273.505 11.04C273.505 11.1467 273.498 11.2467 273.485 11.34H264.465V9.96H272.485L271.705 10.44C271.718 9.76 271.578 9.15333 271.285 8.62C270.992 8.08667 270.585 7.67333 270.065 7.38C269.558 7.07333 268.965 6.92 268.285 6.92C267.618 6.92 267.025 7.07333 266.505 7.38C265.985 7.67333 265.578 8.09333 265.285 8.64C264.992 9.17333 264.845 9.78667 264.845 10.48V10.8C264.845 11.5067 265.005 12.14 265.325 12.7C265.658 13.2467 266.118 13.6733 266.705 13.98C267.292 14.2867 267.965 14.44 268.725 14.44C269.352 14.44 269.918 14.3333 270.425 14.12C270.945 13.9067 271.398 13.5867 271.785 13.16L272.845 14.4C272.365 14.96 271.765 15.3867 271.045 15.68C270.338 15.9733 269.545 16.12 268.665 16.12ZM276.191 16V5.4H278.031V8.28L277.851 7.56C278.144 6.82667 278.638 6.26667 279.331 5.88C280.024 5.49333 280.878 5.3 281.891 5.3V7.16C281.811 7.14667 281.731 7.14 281.651 7.14C281.584 7.14 281.518 7.14 281.451 7.14C280.424 7.14 279.611 7.44667 279.011 8.06C278.411 8.67333 278.111 9.56 278.111 10.72V16H276.191ZM287.467 16L282.827 5.4H284.827L288.947 15H287.987L292.187 5.4H294.067L289.427 16H287.467ZM300.286 16.12C299.153 16.12 298.153 15.8867 297.286 15.42C296.433 14.9533 295.766 14.3133 295.286 13.5C294.819 12.6867 294.586 11.7533 294.586 10.7C294.586 9.64667 294.813 8.71333 295.266 7.9C295.733 7.08667 296.366 6.45333 297.166 6C297.979 5.53333 298.893 5.3 299.906 5.3C300.933 5.3 301.839 5.52667 302.626 5.98C303.413 6.43333 304.026 7.07333 304.466 7.9C304.919 8.71333 305.146 9.66667 305.146 10.76C305.146 10.84 305.139 10.9333 305.126 11.04C305.126 11.1467 305.119 11.2467 305.106 11.34H296.086V9.96H304.106L303.326 10.44C303.339 9.76 303.199 9.15333 302.906 8.62C302.613 8.08667 302.206 7.67333 301.686 7.38C301.179 7.07333 300.586 6.92 299.906 6.92C299.239 6.92 298.646 7.07333 298.126 7.38C297.606 7.67333 297.199 8.09333 296.906 8.64C296.613 9.17333 296.466 9.78667 296.466 10.48V10.8C296.466 11.5067 296.626 12.14 296.946 12.7C297.279 13.2467 297.739 13.6733 298.326 13.98C298.913 14.2867 299.586 14.44 300.346 14.44C300.973 14.44 301.539 14.3333 302.046 14.12C302.566 13.9067 303.019 13.5867 303.406 13.16L304.466 14.4C303.986 14.96 303.386 15.3867 302.666 15.68C301.959 15.9733 301.166 16.12 300.286 16.12ZM307.812 16V5.4H309.652V8.28L309.472 7.56C309.766 6.82667 310.259 6.26667 310.952 5.88C311.646 5.49333 312.499 5.3 313.512 5.3V7.16C313.432 7.14667 313.352 7.14 313.272 7.14C313.206 7.14 313.139 7.14 313.072 7.14C312.046 7.14 311.232 7.44667 310.632 8.06C310.032 8.67333 309.732 9.56 309.732 10.72V16H307.812Z" fill="white"/>
</svg>
