<svg width="31" height="28" viewBox="0 0 31 28" fill="none" xmlns="http://www.w3.org/2000/svg">
<path d="M8.32705 7.76911C8.70779 7.76787 9.07285 7.65268 9.3457 7.4473L14.0654 3.79589V18.8679C14.0654 19.2646 14.3389 19.6309 14.7827 19.8291C15.2266 20.0273 15.7735 20.0273 16.2173 19.8291C16.6611 19.6309 16.9346 19.2645 16.9346 18.8679V3.79589L21.6544 7.4473C21.9262 7.65367 22.2919 7.76911 22.673 7.76911C23.0541 7.76911 23.4198 7.65367 23.6916 7.4473C23.9603 7.23771 24.1111 6.95455 24.1111 6.65923C24.1111 6.36391 23.9603 6.08076 23.6916 5.87116L16.5187 0.321811C16.2468 0.115445 15.8811 0 15.5 0C15.1189 0 14.7533 0.115445 14.4814 0.321811L7.30841 5.87116C7.03975 6.08075 6.88892 6.36391 6.88892 6.65923C6.88892 6.95455 7.03974 7.2377 7.30841 7.4473C7.58124 7.65268 7.94629 7.76788 8.32705 7.76911Z" fill="#ECECEC"/>
<path d="M29.5909 18.6C29.2173 18.6 28.8587 18.7485 28.5945 19.0127C28.3303 19.2769 28.1818 19.6355 28.1818 20.0091V24.2364H2.81818V20.0091C2.81818 19.5056 2.54958 19.0404 2.11364 18.7888C1.6777 18.5372 1.14048 18.5372 0.704545 18.7888C0.268613 19.0404 0 19.5056 0 20.0091V25.6455C0 26.0191 0.148462 26.3777 0.412662 26.6419C0.676863 26.9061 1.03543 27.0546 1.40909 27.0546H29.5909C29.9646 27.0546 30.3231 26.9061 30.5873 26.6419C30.8515 26.3777 31 26.0191 31 25.6455V20.0091C31 19.6355 30.8515 19.2769 30.5873 19.0127C30.3231 18.7485 29.9646 18.6 29.5909 18.6Z" fill="#ECECEC"/>
</svg>
