<svg width="42" height="42" viewBox="0 0 42 42" fill="none" xmlns="http://www.w3.org/2000/svg">
<path d="M17.1659 15.5795H17.1671V15.3295C17.1671 13.3472 18.7796 11.7347 20.7607 11.7347C22.7417 11.7347 24.3542 13.3472 24.3542 15.3295V21.2822C24.3542 23.2633 22.7418 24.8758 20.7595 24.8758C18.7784 24.8758 17.1659 23.2633 17.1659 21.2822V15.5795ZM20.7607 25.8607C23.2858 25.8607 25.3397 23.8068 25.3397 21.2817V15.329C25.3397 12.8039 23.2858 10.75 20.7607 10.75C18.2355 10.75 16.1816 12.8039 16.1816 15.329V21.2817C16.1816 23.8068 18.2355 25.8607 20.7607 25.8607Z" fill="white" stroke="white" stroke-width="0.5"/>
<path d="M27.7718 21.3136H27.7719V18.7045C27.7719 18.4311 27.5505 18.2124 27.2797 18.2124C27.0082 18.2124 26.7876 18.433 26.7876 18.7045V21.3147C26.7876 24.6379 24.0842 27.3403 20.762 27.3403C17.4388 27.3403 14.7354 24.6369 14.7354 21.3147V18.7045C14.7354 18.4311 14.514 18.2124 14.2433 18.2124C13.9739 18.2124 13.75 18.4299 13.75 18.7045V21.3147C13.75 25.0153 16.6336 28.0468 20.2703 28.3004L20.2781 31.2601L16.1123 31.2643L27.7718 21.3136ZM27.7718 21.3136C27.7717 25.0137 24.89 28.0448 21.257 28.2981L21.2648 31.2573L25.4103 31.2531H25.4105C25.6821 31.2531 25.9027 31.4737 25.9027 31.7452C25.9027 32.017 25.683 32.2383 25.4108 32.2385L27.7718 21.3136ZM20.7709 32.2441L16.1126 32.2497L16.1123 32.2497C15.8407 32.2497 15.6201 32.0291 15.6201 31.7576C15.6201 31.4858 15.8398 31.2645 16.112 31.2643L20.7709 32.2441ZM20.7709 32.2441H20.7712H20.772H20.7731H20.7734L25.4105 32.2385L20.7709 32.2441Z" fill="white" stroke="white" stroke-width="0.5"/>
<rect width="42" height="42" rx="21" fill="#A09E9E" fill-opacity="0.36"/>
</svg>
